<?xml version="1.0" ?><svg data-name="Layer 1" id="Layer_1" viewBox="0 0 128 128" xmlns="http://www.w3.org/2000/svg"><defs><style>.cls-1{fill:#062b31;}</style></defs><title/><path class="cls-1" d="M107.83,51.78q.07.86.07,1.79c0,19-13.31,26.82-18.16,27.53a101.19,101.19,0,0,1-13.09,1.31c-8.92,0-11.51,6.43-12.27,10.26S61.81,109,61.24,113h-12l.93-6A13.58,13.58,0,0,0,51,103.4C51.9,97,54.25,80.86,55,77c2.74,0,7.88-.25,13.79-.51h.09c15-.66,31.52-7.68,39-24.66m-2.72-15.53C102.58,62,82.16,69.36,68.58,70c-6.14.27-11.56.51-14,.51s-5,.58-5.89,5-4.15,27.27-4.15,27.27a6.8,6.8,0,0,1-.6,2.5l-1.65,10.58c-.51,3.31,1.12,3.66,1.85,3.66a1.83,1.83,0,0,0,.33,0H64.08c3.35,0,3.42-4.36,3.42-4.36s2.4-16.73,3.27-21.16,3.42-5,5.89-5a102.55,102.55,0,0,0,14-1.38c7.42-1.09,23.71-11.13,23.71-34,0-9.19-4.23-14.39-9.29-17.33Z"/><path class="cls-1" d="M73,7.5V14h0c6.86,0,13,1.15,17.4,3.24,5.76,2.76,8.44,7.05,8.44,13.52,0,29.1-23.41,32.39-30.59,32.71H68.2c-5.83.26-11.34.5-13.66.5C45.62,64,43,70.39,42.27,74.23c-.79,4-3.33,21.54-4,26.39h-12c1.33-8.54,4.13-26.43,4.12-26.42L39.8,14.29H67.46l.37,0A50.61,50.61,0,0,1,73,14V7.5m0,0a55.62,55.62,0,0,0-6,.29H39.31c-5.13,0-5.56,3.16-5.56,3.16L24,73.19s-4.07,26.07-4.73,30.29c-.51,3.31,1.12,3.66,1.85,3.66a1.83,1.83,0,0,0,.33,0H41.09c3.35,0,3.42-4.36,3.42-4.36s3.27-22.84,4.15-27.27,3.42-5,5.89-5,7.9-.24,14-.51c14.5-.64,36.8-8.93,36.8-39.2C105.38,10.08,83.81,7.5,73,7.5Z"/><path class="cls-1" d="M73,7.5V14h0c6.86,0,13,1.15,17.4,3.24,5.76,2.76,8.44,7.05,8.44,13.52,0,29.1-23.41,32.39-30.59,32.71H68.2c-5.83.26-11.34.5-13.66.5C45.62,64,43,70.39,42.27,74.23c-.79,4-3.33,21.54-4,26.39h-12c1.33-8.54,4.13-26.43,4.12-26.42L39.8,14.29H67.46l.37,0A50.61,50.61,0,0,1,73,14V7.5m0,0a55.62,55.62,0,0,0-6,.29H39.31c-5.13,0-5.56,3.16-5.56,3.16L24,73.19s-4.07,26.07-4.73,30.29c-.51,3.31,1.12,3.66,1.85,3.66a1.83,1.83,0,0,0,.33,0H41.09c3.35,0,3.42-4.36,3.42-4.36s3.27-22.84,4.15-27.27,3.42-5,5.89-5,7.9-.24,14-.51c14.5-.64,36.8-8.93,36.8-39.2C105.38,10.08,83.81,7.5,73,7.5Z"/></svg>